<svg xmlns="http://www.w3.org/2000/svg" viewBox="0 0 1200 780" width="1200" height="780" role="img" aria-labelledby="title desc">
  <title id="title">EvidentLoop v0 code-diff architecture</title>
  <desc id="desc">The EvidentLoop v0 code-diff audit profile. The AI host Skill invokes prepare, the host LLM produces semantic review text, Python stages and validates audit.json and audit.html, then one same-filesystem directory rename publishes the pair under a local single-writer model. Hosts use an isolated review context when available.</desc>
  <style>
    text { font-family: "Helvetica Neue", Helvetica, Arial, "PingFang SC", "Microsoft YaHei", sans-serif; fill: #111827; }
    .title { font-size: 25px; font-weight: 700; }
    .subtitle { font-size: 13px; fill: #6b7280; }
    .lane-title { font-size: 11px; font-weight: 700; fill: #374151; letter-spacing: 0.08em; }
    .node-title { font-size: 15px; font-weight: 700; }
    .node-sub { font-size: 11.5px; fill: #6b7280; }
    .micro { font-size: 10.5px; fill: #6b7280; }
    .edge-label { font-size: 10.5px; font-weight: 600; fill: #4b5563; }
    .legend { font-size: 11px; fill: #6b7280; }
    .lane { fill: #f9fafb; stroke: #d1d5db; stroke-width: 1.3; stroke-dasharray: 7 5; }
    .node { fill: #ffffff; stroke: #d1d5db; stroke-width: 1.5; }
    .blue { fill: #eff6ff; stroke: #bfdbfe; }
    .orange { fill: #fff7ed; stroke: #fed7aa; }
    .green { fill: #f0fdf4; stroke: #bbf7d0; }
    .purple { fill: #faf5ff; stroke: #ddd6fe; }
    .teal { fill: #f0fdfa; stroke: #99f6e4; }
    .control { fill: none; stroke: #2563eb; stroke-width: 1.8; stroke-dasharray: 6 4; marker-end: url(#arrow-blue); }
    .data { fill: none; stroke: #16a34a; stroke-width: 2.2; marker-end: url(#arrow-green); }
    .semantic { fill: none; stroke: #9333ea; stroke-width: 2.2; marker-end: url(#arrow-purple); }
  </style>
  <defs>
    <marker id="arrow-blue" markerWidth="10" markerHeight="7" refX="9" refY="3.5" orient="auto">
      <polygon points="0 0,10 3.5,0 7" fill="#2563eb"/>
    </marker>
    <marker id="arrow-green" markerWidth="10" markerHeight="7" refX="9" refY="3.5" orient="auto">
      <polygon points="0 0,10 3.5,0 7" fill="#16a34a"/>
    </marker>
    <marker id="arrow-purple" markerWidth="10" markerHeight="7" refX="9" refY="3.5" orient="auto">
      <polygon points="0 0,10 3.5,0 7" fill="#9333ea"/>
    </marker>
  </defs>

  <rect width="1200" height="780" fill="#ffffff"/>
  <text x="42" y="42" class="title">EvidentLoop v0 code-diff architecture</text>
  <text x="42" y="65" class="subtitle">Semantic review stays in the AI host; Python stages, validates, and commits the trusted artifact pair.</text>

  <rect x="40" y="92" width="1120" height="146" rx="10" class="lane"/>
  <text x="58" y="114" class="lane-title">USER &amp; AI HOST</text>

  <rect x="72" y="132" width="190" height="70" rx="8" class="node blue"/>
  <circle cx="102" cy="154" r="9" fill="#dbeafe" stroke="#2563eb" stroke-width="1.2"/>
  <path d="M88 184 Q88 164 102 164 Q116 164 116 184" fill="#dbeafe" stroke="#2563eb" stroke-width="1.2"/>
  <text x="132" y="157" class="node-title">Developer</text>
  <text x="132" y="178" class="node-sub">“Audit my local diff”</text>

  <polygon points="486,124 572,124 615,167 572,210 486,210 443,167" class="orange" stroke-width="1.5"/>
  <text x="529" y="158" text-anchor="middle" class="node-title">EvidentLoop</text>
  <text x="529" y="178" text-anchor="middle" class="node-sub">Agent Skill</text>
  <text x="529" y="195" text-anchor="middle" class="micro">discover • authorize • orchestrate</text>

  <rect x="792" y="124" width="248" height="86" rx="10" class="node purple" stroke-width="2.4"/>
  <rect x="796" y="128" width="240" height="78" rx="8" fill="none" stroke="#9333ea" stroke-width="0.8" opacity="0.45"/>
  <path d="M820 147 L825 157 L836 162 L825 167 L820 177 L815 167 L804 162 L815 157 Z" fill="#9333ea" opacity="0.85"/>
  <text x="850" y="158" class="node-title">Host LLM</text>
  <text x="850" y="179" class="node-sub">semantic review</text>
  <text x="850" y="196" class="micro">isolate when available • one main chain</text>

  <path d="M262 167 H440" class="control"/>
  <text x="288" y="154" class="edge-label">natural-language trigger</text>
  <path d="M615 167 H789" class="semantic"/>
  <text x="657" y="154" class="edge-label">review task</text>

  <rect x="40" y="274" width="1120" height="278" rx="10" class="lane"/>
  <text x="58" y="296" class="lane-title">EVIDENTLOOP PYTHON PACKAGE • HIDDEN STAGING</text>

  <rect x="72" y="344" width="190" height="112" rx="8" class="node blue"/>
  <text x="94" y="374" class="node-title">prepare</text>
  <text x="94" y="397" class="node-sub">Git diff + ReviewPack</text>
  <text x="94" y="417" class="node-sub">trusted hunk index</text>
  <text x="94" y="437" class="node-sub">dynamic-boundary prompt</text>

  <rect x="320" y="324" width="228" height="152" rx="8" class="teal" stroke-width="1.5" stroke-dasharray="6 4"/>
  <text x="342" y="353" class="node-title">.run/ private handoff</text>
  <text x="342" y="377" class="node-sub">audit-skeleton.json</text>
  <text x="342" y="397" class="node-sub">review-pack.json</text>
  <text x="342" y="417" class="node-sub">hunk-index.json • prompt.md</text>
  <text x="342" y="437" class="node-sub">raw-analysis.md</text>
  <text x="342" y="458" class="micro">temporary • private by default • cleaned</text>

  <rect x="608" y="344" width="190" height="112" rx="8" class="node orange"/>
  <text x="630" y="374" class="node-title">finalize</text>
  <text x="630" y="397" class="node-sub">ingest → ReviewResult</text>
  <text x="630" y="417" class="node-sub">Audit Graph adapter</text>
  <text x="630" y="437" class="node-sub">IDs • edges • score • status</text>

  <rect x="860" y="334" width="220" height="132" rx="8" class="node green"/>
  <text x="882" y="364" class="node-title">Artifact-pair gate</text>
  <text x="882" y="387" class="node-sub">candidate JSON + rendered HTML</text>
  <text x="882" y="407" class="node-sub">schema • anchors • status</text>
  <text x="882" y="427" class="node-sub">trace • XSS • run identity</text>
  <text x="882" y="449" class="micro">all gates pass before publication</text>

  <path d="M468 210 V252 H167 V341" class="control"/>
  <text x="178" y="240" class="edge-label">prepare command</text>
  <path d="M574 210 V252 H703 V341" class="control"/>
  <text x="610" y="242" class="edge-label">finalize command</text>
  <path d="M916 210 V258 H500 V321" class="semantic"/>
  <text x="735" y="249" class="edge-label">raw semantic analysis</text>

  <path d="M262 400 H317" class="data"/>
  <text x="270" y="386" class="edge-label">trusted context</text>
  <path d="M548 400 H605" class="data"/>
  <text x="558" y="386" class="edge-label">internal transfer</text>
  <path d="M798 400 H857" class="data"/>
  <text x="810" y="386" class="edge-label">graph</text>

  <rect x="40" y="584" width="1120" height="132" rx="10" class="lane"/>
  <text x="58" y="606" class="lane-title">USER-VISIBLE AFTER DIRECTORY COMMIT</text>

  <path d="M112 624 L268 624 L284 640 L284 688 L112 688 Z" class="green" stroke-width="1.5"/>
  <path d="M268 624 V640 H284" fill="#dcfce7" stroke="#16a34a" stroke-width="1"/>
  <text x="198" y="651" text-anchor="middle" class="node-title">audit.json</text>
  <text x="198" y="672" text-anchor="middle" class="node-sub">validated audit record</text>

  <rect x="398" y="624" width="184" height="64" rx="8" class="node blue"/>
  <text x="490" y="651" text-anchor="middle" class="node-title">Directory commit</text>
  <text x="490" y="672" text-anchor="middle" class="node-sub">one same-filesystem rename</text>

  <rect x="696" y="624" width="184" height="64" rx="7" class="node green"/>
  <rect x="696" y="624" width="184" height="18" rx="7" fill="#dcfce7" stroke="none"/>
  <circle cx="708" cy="633" r="3" fill="#ef4444"/>
  <circle cx="718" cy="633" r="3" fill="#f59e0b"/>
  <circle cx="728" cy="633" r="3" fill="#10b981"/>
  <text x="788" y="658" text-anchor="middle" class="node-title">audit.html</text>
  <text x="788" y="678" text-anchor="middle" class="micro">summary • findings • decisions</text>

  <path d="M992 624 L1120 624 L1134 638 L1134 688 L992 688 Z" class="purple" stroke-width="1.5"/>
  <path d="M1120 624 V638 H1134" fill="#ede9fe" stroke="#9333ea" stroke-width="1"/>
  <text x="1063" y="650" text-anchor="middle" class="node-title">feedback</text>
  <text x="1063" y="670" text-anchor="middle" class="node-sub">optional JSONL</text>

  <path d="M970 466 V548 H490 V621" class="data"/>
  <text x="664" y="540" class="edge-label">validated staged JSON/HTML pair</text>
  <path d="M398 656 H287" class="data"/>
  <path d="M582 656 H693" class="data"/>
  <path d="M880 656 H989" class="semantic"/>
  <text x="897" y="643" class="edge-label">user decision</text>

  <line x1="42" y1="750" x2="72" y2="750" class="control"/>
  <text x="80" y="754" class="legend">orchestration</text>
  <line x1="190" y1="750" x2="220" y2="750" class="data"/>
  <text x="228" y="754" class="legend">trusted data / artifact</text>
  <line x1="382" y1="750" x2="412" y2="750" class="semantic"/>
  <text x="420" y="754" class="legend">semantic review / human feedback</text>
  <text x="1158" y="754" text-anchor="end" class="legend">Staging stays hidden; target check + one rename publishes the validated JSON/HTML pair</text>
</svg>
